<svg xmlns="http://www.w3.org/2000/svg" viewBox="0 0 24 23"><path fill="currentColor" fill-rule="evenodd" d="M11.965 0C5.348 0 0 5.27 0 11.793c0 5.21 3.426 9.625 8.18 11.184.593.117.812-.254.812-.567 0-.273-.02-1.207-.02-2.183-3.327.703-4.019-1.407-4.019-1.407-.535-1.367-1.328-1.718-1.328-1.718-1.09-.723.078-.723.078-.723 1.211.078 1.844 1.21 1.844 1.21 1.07 1.798 2.793 1.29 3.484.977.102-.761.418-1.289.754-1.582-2.652-.273-5.445-1.289-5.445-5.816 0-1.29.473-2.344 1.226-3.164-.12-.293-.535-1.504.118-3.125 0 0 1.011-.313 3.289 1.21a11.89 11.89 0 012.992-.39c1.008 0 2.039.137 2.992.39 2.277-1.523 3.285-1.21 3.285-1.21.656 1.621.238 2.832.121 3.125.774.82 1.227 1.875 1.227 3.164 0 4.527-2.793 5.523-5.465 5.816.434.371.809 1.075.809 2.188 0 1.582-.02 2.848-.02 3.238 0 .313.219.684.813.567 4.753-1.563 8.183-5.973 8.183-11.184C23.93 5.27 18.56 0 11.965 0zm0 0"/></svg>