<svg xmlns="http://www.w3.org/2000/svg" fill="none" viewBox="0 0 16 12"><path fill="currentColor" d="M6.042 1.617a.25.25 0 01.13-.413A8.125 8.125 0 018 1c2.18 0 4.16.829 5.729 2.397 1.177 1.177 1.706 2.351 1.728 2.4a.5.5 0 010 .407c-.022.05-.551 1.223-1.728 2.4a9.134 9.134 0 01-.55.504.25.25 0 01-.347-.022zm7.328 9.547a.5.5 0 11-.74.672l-1.38-1.515A7.95 7.95 0 018 11c-2.18 0-4.16-.829-5.729-2.396C1.094 7.427.562 6.254.543 6.204a.5.5 0 010-.407c.02-.047.551-1.223 1.728-2.4.47-.472.995-.887 1.563-1.236L2.63.836a.5.5 0 11.74-.672zM9.277 8.148L5.984 4.523a2.5 2.5 0 003.293 3.625z"/></svg>