<svg xmlns="http://www.w3.org/2000/svg" fill="none" viewBox="0 0 16 15"><path fill="#201f24" d="M14.25 0H1.75A1.25 1.25 0 00.5 1.25v12.5A1.25 1.25 0 001.75 15h12.5a1.25 1.25 0 001.25-1.25V1.25A1.25 1.25 0 0014.25 0zM3.625 3.125h7.5a.625.625 0 110 1.25h-7.5a.625.625 0 010-1.25zm3.125 8.75H3.625a.625.625 0 110-1.25H6.75a.625.625 0 110 1.25zm.625-3.75h-3.75a.625.625 0 010-1.25h3.75a.625.625 0 010 1.25zm6.067 2.317l-1.875 1.875a.627.627 0 01-.884 0l-1.875-1.875a.625.625 0 01.884-.884l.808.808V6.875a.625.625 0 111.25 0v3.491l.808-.808a.625.625 0 01.884.884z"/></svg>